<svg xmlns="http://www.w3.org/2000/svg" width="1280" height="850" viewBox="0 0 1280 850" role="img" aria-labelledby="art-title art-description"><title id="art-title">Systems and automation: swiftPentest contribution and n8n workflow</title><desc id="art-description">Jatin contributes to swiftPentest: 12+ agents and 99 tools, control and test comparisons, a minimum 3/5 reproduction gate, and SARIF evidence output. The lower illustration shows an n8n due diligence, scoring and approval workflow.</desc><defs>
      <radialGradient id="glow"><stop stop-color="#ed3025" stop-opacity=".07"/><stop offset="1" stop-color="#ed3025" stop-opacity="0"/></radialGradient>
    </defs>
    <style>
      /* The base illustration is complete. Only these decorative overlays move. */
      .flow-pulse { opacity: 0; stroke-dasharray: 9 191; stroke-dashoffset: 12;
        animation: data-flow 8s linear infinite; }
      .gate-confirm { opacity: 0; animation: gate-check 8s ease-in-out infinite; }
      @keyframes data-flow {
        0% { opacity: 0; stroke-dashoffset: 12; }
        2% { opacity: .62; stroke-dashoffset: 2; }
        14% { opacity: .62; stroke-dashoffset: -90; }
        16%, 100% { opacity: 0; stroke-dashoffset: -104; }
      }
      @keyframes gate-check {
        0%, 2% { opacity: 0; }
        6% { opacity: .65; }
        13%, 100% { opacity: 0; }
      }
      @media (prefers-reduced-motion: reduce) {
        .flow-pulse, .gate-confirm { animation: none !important; opacity: 0 !important; }
      }
    </style><rect x="0" y="0" width="1280" height="850" rx="32" fill="#101012" stroke="none" stroke-width="1"/><rect x="1" y="1" width="1278" height="848" rx="32" fill="none" stroke="#353538" stroke-width="2"/><text x="48" y="66" font-family="Arial, Helvetica, sans-serif" font-size="36" fill="#f7f5f1" font-weight="600" text-anchor="start">SYSTEMS &amp; AUTOMATION</text><path d="M48 97H1232" fill="none" stroke="#353538" stroke-width="2" stroke-linecap="round" stroke-linejoin="round"/><text x="644" y="125" font-family="Arial, Helvetica, sans-serif" font-size="30" fill="#bab6b2" font-weight="500" text-anchor="middle">12+ AGENTS</text><path d="M293 240H370Q394 240 394 264V329H524" fill="none" stroke="#ed3025" stroke-width="3" stroke-linecap="round" stroke-linejoin="round"/><path class="flow-pulse" data-flow-stage="control" d="M293 240H370Q394 240 394 264V329H524" pathLength="100" fill="none" stroke="#f7f5f1" stroke-width="4" stroke-linecap="round" stroke-linejoin="round" opacity="0" style="animation-delay:0s"/><path d="M293 350H352Q378 350 378 333V329H524" fill="none" stroke="#6b6262" stroke-width="3" stroke-linecap="round" stroke-linejoin="round"/><path class="flow-pulse" data-flow-stage="test" d="M293 350H352Q378 350 378 333V329H524" pathLength="100" fill="none" stroke="#f7f5f1" stroke-width="4" stroke-linecap="round" stroke-linejoin="round" opacity="0" style="animation-delay:0.35s"/><path d="M295 492H409Q433 492 433 464V329H524" fill="none" stroke="#6b6262" stroke-width="3" stroke-linecap="round" stroke-linejoin="round"/><path class="flow-pulse" data-flow-stage="tools" d="M295 492H409Q433 492 433 464V329H524" pathLength="100" fill="none" stroke="#f7f5f1" stroke-width="4" stroke-linecap="round" stroke-linejoin="round" opacity="0" style="animation-delay:0.7s"/><path d="M644 454V545" fill="none" stroke="#ed3025" stroke-width="3" stroke-linecap="round" stroke-linejoin="round"/><path class="flow-pulse" data-flow-stage="core-to-gate" d="M644 454V545" pathLength="100" fill="none" stroke="#f7f5f1" stroke-width="4" stroke-linecap="round" stroke-linejoin="round" opacity="0" style="animation-delay:2s"/><path d="M870 583H925Q949 583 949 557V480Q949 460 969 460H986" fill="none" stroke="#ed3025" stroke-width="3" stroke-linecap="round" stroke-linejoin="round"/><path class="flow-pulse" data-flow-stage="gate-to-evidence" d="M870 583H925Q949 583 949 557V480Q949 460 969 460H986" pathLength="100" fill="none" stroke="#f7f5f1" stroke-width="4" stroke-linecap="round" stroke-linejoin="round" opacity="0" style="animation-delay:4.7s"/><circle cx="394" cy="329" r="4" fill="#f7f5f1"/><circle cx="433" cy="329" r="4" fill="#f7f5f1"/><rect x="50" y="199" width="245" height="89" rx="18" fill="#0b0b0d" stroke="none" stroke-width="1"/><rect x="48" y="195" width="245" height="89" rx="18" fill="#1b1b1f" stroke="#51484d" stroke-width="1.5"/><rect x="64" y="211" width="7" height="57" rx="3" fill="#ed3025" stroke="none" stroke-width="1"/><text x="86" y="239" font-family="Arial, Helvetica, sans-serif" font-size="28" fill="#f7f5f1" font-weight="600" text-anchor="start">CONTROL</text><path d="M86 261h181" fill="none" stroke="#6e6262" stroke-width="3" stroke-linecap="round" stroke-linejoin="round"/><circle cx="269" cy="219" r="4" fill="#f7f5f1"/><rect x="50" y="311" width="245" height="89" rx="18" fill="#0b0b0d" stroke="none" stroke-width="1"/><rect x="48" y="307" width="245" height="89" rx="18" fill="#1b1b1f" stroke="#51484d" stroke-width="1.5"/><rect x="64" y="323" width="7" height="57" rx="3" fill="#ed3025" stroke="none" stroke-width="1"/><text x="86" y="351" font-family="Arial, Helvetica, sans-serif" font-size="28" fill="#f7f5f1" font-weight="600" text-anchor="start">TEST</text><path d="M86 373h181" fill="none" stroke="#6e6262" stroke-width="3" stroke-linecap="round" stroke-linejoin="round"/><circle cx="269" cy="331" r="4" fill="#f7f5f1"/><rect x="50" y="425" width="247" height="143" rx="18" fill="#0b0b0d" stroke="none" stroke-width="1"/><rect x="48" y="421" width="247" height="143" rx="18" fill="#1b1b1f" stroke="#51484d" stroke-width="1.5"/><text x="70" y="464" font-family="Arial, Helvetica, sans-serif" font-size="32" fill="#f7f5f1" font-weight="600" text-anchor="start">99 TOOLS</text><rect x="68.0" y="486" width="31.833333333333332" height="17" rx="5" fill="#292325" stroke="#564340" stroke-width="1"/><circle cx="83.91666666666667" cy="494" r="2.5" fill="#f7f5f1"/><rect x="102.83333333333333" y="486" width="31.833333333333332" height="17" rx="5" fill="#292325" stroke="#564340" stroke-width="1"/><circle cx="118.75" cy="494" r="2.5" fill="#ed3025"/><rect x="137.66666666666666" y="486" width="31.833333333333332" height="17" rx="5" fill="#292325" stroke="#564340" stroke-width="1"/><circle cx="153.58333333333331" cy="494" r="2.5" fill="#ed3025"/><rect x="172.5" y="486" width="31.833333333333332" height="17" rx="5" fill="#292325" stroke="#564340" stroke-width="1"/><circle cx="188.41666666666666" cy="494" r="2.5" fill="#f7f5f1"/><rect x="207.33333333333331" y="486" width="31.833333333333332" height="17" rx="5" fill="#292325" stroke="#564340" stroke-width="1"/><circle cx="223.24999999999997" cy="494" r="2.5" fill="#ed3025"/><rect x="242.16666666666663" y="486" width="31.833333333333332" height="17" rx="5" fill="#292325" stroke="#564340" stroke-width="1"/><circle cx="258.0833333333333" cy="494" r="2.5" fill="#ed3025"/><rect x="68.0" y="513" width="31.833333333333332" height="17" rx="5" fill="#292325" stroke="#564340" stroke-width="1"/><circle cx="83.91666666666667" cy="521" r="2.5" fill="#ed3025"/><rect x="102.83333333333333" y="513" width="31.833333333333332" height="17" rx="5" fill="#292325" stroke="#564340" stroke-width="1"/><circle cx="118.75" cy="521" r="2.5" fill="#ed3025"/><rect x="137.66666666666666" y="513" width="31.833333333333332" height="17" rx="5" fill="#292325" stroke="#564340" stroke-width="1"/><circle cx="153.58333333333331" cy="521" r="2.5" fill="#f7f5f1"/><rect x="172.5" y="513" width="31.833333333333332" height="17" rx="5" fill="#292325" stroke="#564340" stroke-width="1"/><circle cx="188.41666666666666" cy="521" r="2.5" fill="#ed3025"/><rect x="207.33333333333331" y="513" width="31.833333333333332" height="17" rx="5" fill="#292325" stroke="#564340" stroke-width="1"/><circle cx="223.24999999999997" cy="521" r="2.5" fill="#ed3025"/><rect x="242.16666666666663" y="513" width="31.833333333333332" height="17" rx="5" fill="#292325" stroke="#564340" stroke-width="1"/><circle cx="258.0833333333333" cy="521" r="2.5" fill="#f7f5f1"/><path d="M70 545h203" fill="none" stroke="#4e4242" stroke-width="2" stroke-linecap="round" stroke-linejoin="round"/><circle cx="644" cy="329" r="248" fill="url(#glow)"/><circle cx="644" cy="329" r="173" fill="none" stroke="#514448" stroke-width="2"/><circle cx="644" cy="329" r="155" fill="none" stroke="#333136" stroke-width="1" stroke-dasharray="3 12"/><path d="M644.00 214.00L644.00 156.00" fill="none" stroke="#534346" stroke-width="2" stroke-linecap="round" stroke-linejoin="round"/><rect x="626.0" y="138.0" width="36" height="36" rx="10" fill="#1b1b1f" stroke="#706265" stroke-width="1.5"/><rect x="638.0" y="150.0" width="12" height="12" rx="3" fill="#f7f5f1" stroke="none" stroke-width="1"/><path d="M701.50 229.41L730.50 179.18" fill="none" stroke="#534346" stroke-width="2" stroke-linecap="round" stroke-linejoin="round"/><rect x="712.5" y="161.18" width="36" height="36" rx="10" fill="#1b1b1f" stroke="#706265" stroke-width="1.5"/><rect x="724.5" y="173.18" width="12" height="12" rx="3" fill="#ed3025" stroke="none" stroke-width="1"/><path d="M743.59 271.50L793.82 242.50" fill="none" stroke="#534346" stroke-width="2" stroke-linecap="round" stroke-linejoin="round"/><rect x="775.82" y="224.5" width="36" height="36" rx="10" fill="#1b1b1f" stroke="#706265" stroke-width="1.5"/><rect x="787.82" y="236.5" width="12" height="12" rx="3" fill="#ed3025" stroke="none" stroke-width="1"/><path d="M759.00 329.00L817.00 329.00" fill="none" stroke="#534346" stroke-width="2" stroke-linecap="round" stroke-linejoin="round"/><rect x="799.0" y="311.0" width="36" height="36" rx="10" fill="#1b1b1f" stroke="#706265" stroke-width="1.5"/><rect x="811.0" y="323.0" width="12" height="12" rx="3" fill="#f7f5f1" stroke="none" stroke-width="1"/><path d="M743.59 386.50L793.82 415.50" fill="none" stroke="#534346" stroke-width="2" stroke-linecap="round" stroke-linejoin="round"/><rect x="775.82" y="397.5" width="36" height="36" rx="10" fill="#1b1b1f" stroke="#706265" stroke-width="1.5"/><rect x="787.82" y="409.5" width="12" height="12" rx="3" fill="#ed3025" stroke="none" stroke-width="1"/><path d="M701.50 428.59L730.50 478.82" fill="none" stroke="#534346" stroke-width="2" stroke-linecap="round" stroke-linejoin="round"/><rect x="712.5" y="460.82" width="36" height="36" rx="10" fill="#1b1b1f" stroke="#706265" stroke-width="1.5"/><rect x="724.5" y="472.82" width="12" height="12" rx="3" fill="#ed3025" stroke="none" stroke-width="1"/><path d="M644.00 444.00L644.00 502.00" fill="none" stroke="#534346" stroke-width="2" stroke-linecap="round" stroke-linejoin="round"/><rect x="626.0" y="484.0" width="36" height="36" rx="10" fill="#1b1b1f" stroke="#706265" stroke-width="1.5"/><rect x="638.0" y="496.0" width="12" height="12" rx="3" fill="#f7f5f1" stroke="none" stroke-width="1"/><path d="M586.50 428.59L557.50 478.82" fill="none" stroke="#534346" stroke-width="2" stroke-linecap="round" stroke-linejoin="round"/><rect x="539.5" y="460.82" width="36" height="36" rx="10" fill="#1b1b1f" stroke="#706265" stroke-width="1.5"/><rect x="551.5" y="472.82" width="12" height="12" rx="3" fill="#ed3025" stroke="none" stroke-width="1"/><path d="M544.41 386.50L494.18 415.50" fill="none" stroke="#534346" stroke-width="2" stroke-linecap="round" stroke-linejoin="round"/><rect x="476.18" y="397.5" width="36" height="36" rx="10" fill="#1b1b1f" stroke="#706265" stroke-width="1.5"/><rect x="488.18" y="409.5" width="12" height="12" rx="3" fill="#ed3025" stroke="none" stroke-width="1"/><path d="M529.00 329.00L471.00 329.00" fill="none" stroke="#534346" stroke-width="2" stroke-linecap="round" stroke-linejoin="round"/><rect x="453.0" y="311.0" width="36" height="36" rx="10" fill="#1b1b1f" stroke="#706265" stroke-width="1.5"/><rect x="465.0" y="323.0" width="12" height="12" rx="3" fill="#f7f5f1" stroke="none" stroke-width="1"/><path d="M544.41 271.50L494.18 242.50" fill="none" stroke="#534346" stroke-width="2" stroke-linecap="round" stroke-linejoin="round"/><rect x="476.18" y="224.5" width="36" height="36" rx="10" fill="#1b1b1f" stroke="#706265" stroke-width="1.5"/><rect x="488.18" y="236.5" width="12" height="12" rx="3" fill="#ed3025" stroke="none" stroke-width="1"/><path d="M586.50 229.41L557.50 179.18" fill="none" stroke="#534346" stroke-width="2" stroke-linecap="round" stroke-linejoin="round"/><rect x="539.5" y="161.18" width="36" height="36" rx="10" fill="#1b1b1f" stroke="#706265" stroke-width="1.5"/><rect x="551.5" y="173.18" width="12" height="12" rx="3" fill="#ed3025" stroke="none" stroke-width="1"/><circle cx="644" cy="329" r="126" fill="#08080a"/><circle cx="644" cy="329" r="119" fill="#1b1b1f" stroke="#ed3025" stroke-width="3"/><circle cx="644" cy="329" r="107" fill="none" stroke="#665050" stroke-width="1"/><path d="M617 264h54M606 276h76" fill="none" stroke="#ed3025" stroke-width="4" stroke-linecap="round" stroke-linejoin="round"/><text x="644" y="333" font-family="Arial, Helvetica, sans-serif" font-size="35" fill="#f7f5f1" font-weight="700" text-anchor="middle">swiftPentest</text><text x="644" y="375" font-family="Arial, Helvetica, sans-serif" font-size="28" fill="#bab6b2" font-weight="500" text-anchor="middle">CONTRIBUTOR</text><circle cx="626" cy="408" r="4" fill="#ed3025"/><circle cx="644" cy="408" r="4" fill="#ed3025"/><circle cx="662" cy="408" r="4" fill="#f7f5f1"/><rect x="1000" y="233" width="230" height="288" rx="18" fill="#0a080b" stroke="none" stroke-width="1"/><rect x="990" y="235" width="224" height="276" rx="15" fill="#32252a" stroke="#6f433f" stroke-width="2"/><rect x="1005" y="220" width="204" height="272" rx="12" fill="#bdb4aa" stroke="none" stroke-width="1"/><rect x="995" y="213" width="204" height="272" rx="12" fill="#f7f5f1" stroke="none" stroke-width="1"/><text x="1016" y="267" font-family="Arial, Helvetica, sans-serif" font-size="32" fill="#101012" font-weight="600" text-anchor="start">SARIF</text><path d="M1017 291h137M1017 309h155M1017 327h124" fill="none" stroke="#a39a95" stroke-width="4" stroke-linecap="round" stroke-linejoin="round"/><rect x="1016" y="351" width="180" height="38" rx="7" fill="none" stroke="#ed3025" stroke-width="2"/><text x="1028" y="379" font-family="Arial, Helvetica, sans-serif" font-size="28" fill="#ed3025" font-weight="600" text-anchor="start">EVIDENCE</text><rect x="986" y="463" width="244" height="58" rx="13" fill="#272023" stroke="#6d4944" stroke-width="2"/><path d="M1007 479h202" fill="none" stroke="#a95047" stroke-width="2" stroke-linecap="round" stroke-linejoin="round"/><circle cx="1012" cy="501" r="4" fill="#ed3025"/><circle cx="1028" cy="501" r="4" fill="#f7f5f1"/><rect x="418" y="545" width="452" height="76" rx="18" fill="#19181c" stroke="#ed3025" stroke-width="2"/><text x="644.0" y="588" font-family="Arial, Helvetica, sans-serif" font-size="28" fill="#f7f5f1" font-weight="600" text-anchor="middle">3/5 REPRODUCTION GATE</text><rect x="568.0" y="601" width="24" height="6" rx="3" fill="#ed3025" stroke="none" stroke-width="1"/><rect class="gate-confirm" data-gate-check="1" x="568.0" y="600" width="24" height="8" rx="4" fill="none" stroke="#f7f5f1" stroke-width="2" opacity="0" style="animation-delay:3.30s"/><rect x="600.0" y="601" width="24" height="6" rx="3" fill="#ed3025" stroke="none" stroke-width="1"/><rect class="gate-confirm" data-gate-check="2" x="600.0" y="600" width="24" height="8" rx="4" fill="none" stroke="#f7f5f1" stroke-width="2" opacity="0" style="animation-delay:3.75s"/><rect x="632.0" y="601" width="24" height="6" rx="3" fill="#ed3025" stroke="none" stroke-width="1"/><rect class="gate-confirm" data-gate-check="3" x="632.0" y="600" width="24" height="8" rx="4" fill="none" stroke="#f7f5f1" stroke-width="2" opacity="0" style="animation-delay:4.20s"/><rect x="664.0" y="601" width="24" height="6" rx="3" fill="#4a4144" stroke="none" stroke-width="1"/><rect x="696.0" y="601" width="24" height="6" rx="3" fill="#4a4144" stroke="none" stroke-width="1"/><path d="M48 641H1232" fill="none" stroke="#353538" stroke-width="2" stroke-linecap="round" stroke-linejoin="round"/><text x="48" y="664" font-family="Arial, Helvetica, sans-serif" font-size="28" fill="#bab6b2" font-weight="500" text-anchor="start">n8n WORKFLOW</text><path d="M397.3333333333333 759.0H465.3333333333333" fill="none" stroke="#ed3025" stroke-width="3" stroke-linecap="round" stroke-linejoin="round"/><path class="flow-pulse" data-flow-stage="workflow-1" d="M397.3333333333333 759.0H465.3333333333333" pathLength="100" fill="none" stroke="#f7f5f1" stroke-width="4" stroke-linecap="round" stroke-linejoin="round" opacity="0" style="animation-delay:5.9s"/><circle cx="431.3333333333333" cy="759.0" r="4" fill="#f7f5f1"/><rect x="50.0" y="695" width="349.3333333333333" height="136" rx="18" fill="#0b0b0d" stroke="none" stroke-width="1"/><rect x="48.0" y="691" width="349.3333333333333" height="136" rx="18" fill="#1b1b1f" stroke="#51484d" stroke-width="1.5"/><rect x="207.66666666666666" y="711" width="30" height="36" rx="5" fill="none" stroke="#ed3025" stroke-width="3"/><path d="M215.66666666666666 720h14M215.66666666666666 729h14M215.66666666666666 738h9" fill="none" stroke="#f7f5f1" stroke-width="2" stroke-linecap="round" stroke-linejoin="round"/><text x="222.66666666666666" y="783" font-family="Arial, Helvetica, sans-serif" font-size="28" fill="#f7f5f1" font-weight="600" text-anchor="middle">DUE</text><text x="222.66666666666666" y="815" font-family="Arial, Helvetica, sans-serif" font-size="28" fill="#f7f5f1" font-weight="600" text-anchor="middle">DILIGENCE</text><path d="M814.6666666666666 759.0H882.6666666666666" fill="none" stroke="#ed3025" stroke-width="3" stroke-linecap="round" stroke-linejoin="round"/><path class="flow-pulse" data-flow-stage="workflow-2" d="M814.6666666666666 759.0H882.6666666666666" pathLength="100" fill="none" stroke="#f7f5f1" stroke-width="4" stroke-linecap="round" stroke-linejoin="round" opacity="0" style="animation-delay:6.6s"/><circle cx="848.6666666666666" cy="759.0" r="4" fill="#f7f5f1"/><rect x="467.3333333333333" y="695" width="349.3333333333333" height="136" rx="18" fill="#0b0b0d" stroke="none" stroke-width="1"/><rect x="465.3333333333333" y="691" width="349.3333333333333" height="136" rx="18" fill="#1b1b1f" stroke="#51484d" stroke-width="1.5"/><rect x="619.0" y="734" width="10" height="15" rx="2" fill="#ed3025" stroke="none" stroke-width="1"/><rect x="635.0" y="722" width="10" height="27" rx="2" fill="#f7f5f1" stroke="none" stroke-width="1"/><rect x="651.0" y="711" width="10" height="38" rx="2" fill="#ed3025" stroke="none" stroke-width="1"/><text x="640.0" y="783" font-family="Arial, Helvetica, sans-serif" font-size="28" fill="#f7f5f1" font-weight="600" text-anchor="middle">RISK</text><text x="640.0" y="815" font-family="Arial, Helvetica, sans-serif" font-size="28" fill="#f7f5f1" font-weight="600" text-anchor="middle">SCORING</text><rect x="884.6666666666666" y="695" width="349.3333333333333" height="136" rx="18" fill="#0b0b0d" stroke="none" stroke-width="1"/><rect x="882.6666666666666" y="691" width="349.3333333333333" height="136" rx="18" fill="#1b1b1f" stroke="#51484d" stroke-width="1.5"/><circle cx="1057.3333333333333" cy="730" r="21" fill="none" stroke="#ed3025" stroke-width="3"/><path d="M1047.3333333333333 730l7 8 14-16" fill="none" stroke="#f7f5f1" stroke-width="3" stroke-linecap="round" stroke-linejoin="round"/><text x="1057.3333333333333" y="783" font-family="Arial, Helvetica, sans-serif" font-size="28" fill="#f7f5f1" font-weight="600" text-anchor="middle">HUMAN</text><text x="1057.3333333333333" y="815" font-family="Arial, Helvetica, sans-serif" font-size="28" fill="#f7f5f1" font-weight="600" text-anchor="middle">APPROVAL</text></svg>
